<svg width="280" height="280" viewBox="0 0 280 280" fill="none"
    xmlns="http://www.w3.org/2000/svg">
    <path d="M180.597 54.6069C180.597 54.6069 150.648 92.5426 102.729 69.9142C54.8106 47.2859 6.89165 108.516 48.1551 145.786C89.4186 183.056 49.0392 203.536 77.072 226.377C108.933 252.338 136.672 199.694 161.962 211.674C217.78 238.114 259.131 227.647 249.813 197.032C233.458 143.292 212.543 139.796 228.516 111.843C244.489 83.8906 209.237 25.7701 180.597 54.6069Z" fill="#DEE9FF"/>
    <path d="M164.292 159.527L161.926 172.23L150.656 232.615L130.355 228.824L143.372 159.069L143.991 155.745L164.292 159.527Z" fill="#699CFF"/>
    <path d="M214.288 129.149L207.288 166.677C207.267 166.787 207.225 166.892 207.164 166.986C207.103 167.08 207.024 167.16 206.932 167.224C206.84 167.287 206.736 167.331 206.626 167.354C206.517 167.378 206.404 167.379 206.294 167.358L107.949 149.016L119.524 86.954L194.203 100.883C207.739 103.407 216.729 116.059 214.288 129.149Z" fill="#A2BDFF"/>
    <path d="M140.53 116.555L133.584 153.792L81.9627 144.164L88.9078 106.927C91.4649 93.2164 105.094 84.2571 119.349 86.9157C133.603 89.5743 143.087 102.844 140.53 116.555Z" fill="#699CFF"/>
    <path d="M164.562 133.962C160.758 133.252 158.248 129.555 158.964 125.716C159.68 121.876 163.354 119.332 167.158 120.042C168.371 120.269 169.501 120.814 170.435 121.621C171.369 122.427 172.072 123.467 172.474 124.634L220.526 133.596L219.228 140.556L171.176 131.594C170.381 132.537 169.35 133.254 168.188 133.67C167.026 134.085 165.775 134.186 164.562 133.962V133.962Z" fill="#418DF9"/>
    <path d="M138.817 117.239L132.05 153.519L83.4208 144.449L90.188 108.169C92.6793 94.8112 105.585 86.0125 119.014 88.5171C132.443 91.0217 141.308 103.881 138.817 117.239Z" fill="#418DF9"/>
    <path d="M165.924 130.446C167.88 130.446 169.465 128.861 169.465 126.905C169.465 124.95 167.88 123.365 165.924 123.365C163.969 123.365 162.384 124.95 162.384 126.905C162.384 128.861 163.969 130.446 165.924 130.446Z" fill="white"/>
    <path d="M221.081 133.571L216.837 156.329C216.818 156.427 216.762 156.514 216.68 156.57C216.598 156.627 216.496 156.648 216.398 156.63L205.24 154.549C205.221 154.545 205.204 154.534 205.193 154.518C205.182 154.502 205.177 154.482 205.181 154.462L209.481 131.407C209.485 131.388 209.496 131.371 209.512 131.36C209.528 131.349 209.548 131.345 209.568 131.348L221.022 133.485C221.041 133.488 221.059 133.499 221.07 133.516C221.081 133.532 221.085 133.552 221.081 133.571V133.571Z" fill="#699CFF"/>
    <path d="M99.5135 131.43C99.9833 134.887 103.776 138.995 103.776 138.995C97.9967 139.404 94.8668 136.136 93.52 134.15C91.8548 134.631 90.1435 134.935 88.4145 135.056C76.5493 135.897 66.3352 128.151 65.5976 117.745C64.8599 107.34 73.8794 98.2302 85.7445 97.3894C97.6096 96.5485 107.823 104.294 108.561 114.7C109.04 121.468 105.388 127.689 99.5135 131.43Z" fill="white"/>
    <path d="M133.634 153.815C133.097 155.175 123.271 195.69 91.4747 189.76C56.6079 183.857 81.8279 144.152 81.8279 144.152L133.634 153.815Z" fill="#A2BDFF"/>
    <path d="M87.0787 119.792C88.708 119.792 90.0288 118.471 90.0288 116.842C90.0288 115.213 88.708 113.892 87.0787 113.892C85.4495 113.892 84.1287 115.213 84.1287 116.842C84.1287 118.471 85.4495 119.792 87.0787 119.792Z" fill="#699CFF"/>
    <path d="M73.8718 118.506C75.5109 118.506 76.8397 117.177 76.8397 115.538C76.8397 113.899 75.5109 112.57 73.8718 112.57C72.2327 112.57 70.9039 113.899 70.9039 115.538C70.9039 117.177 72.2327 118.506 73.8718 118.506Z" fill="#699CFF"/>
    <path d="M100.159 121.049C101.798 121.049 103.127 119.721 103.127 118.082C103.127 116.442 101.798 115.114 100.159 115.114C98.5202 115.114 97.1915 116.442 97.1915 118.082C97.1915 119.721 98.5202 121.049 100.159 121.049Z" fill="#699CFF"/>
    <path d="M164.292 159.527L161.926 172.23L143.372 159.069L143.991 155.745L164.292 159.527Z" fill="#418DF9"/>
</svg>
