<?xml version="1.0" encoding="utf-8"?>
<!-- Generator: Adobe Illustrator 27.5.0, SVG Export Plug-In . SVG Version: 6.00 Build 0)  -->
<svg version="1.1" xmlns="http://www.w3.org/2000/svg" xmlns:xlink="http://www.w3.org/1999/xlink" x="0px" y="0px"
	 viewBox="0 0 2200 2200" style="enable-background:new 0 0 2200 2200;" xml:space="preserve">
<g id="background">
	<rect y="0" style="fill:#FFFFFF;" width="2200" height="2200"/>
</g>
<g id="Objects">
	<g>
		<path style="fill:#093756;" d="M1062.633,588.758c0,225.515-168.122,411.759-385.872,440.224
			c-19.017,2.486-38.425,3.772-58.125,3.772c-245.214,0-443.997-198.783-443.997-443.997s198.783-443.997,443.997-443.997
			c211.861,0,389.062,148.387,433.348,346.9C1058.953,522.912,1062.633,555.405,1062.633,588.758z"/>
		<path style="fill:#032B42;" d="M755.962,292.453l296.021,199.209c6.969,31.25,10.649,63.744,10.649,97.097
			c0,225.515-168.122,411.759-385.872,440.224C545.217,941.114,423.42,858.239,410.831,844.536l51.565-41.32
			C621.113,676.033,725.96,493.615,755.962,292.453L755.962,292.453z"/>
		<path style="fill:#FFFFFF;" d="M826.441,833.859v10.677c-56.697,46.119-129.022,73.76-207.805,73.76
			s-151.108-27.641-207.805-73.76v-10.677c0-81.021,65.676-146.689,146.689-146.689l12.219-39.562
			c-33.573-16.716-57.435-50.097-60.753-89.268c-0.362-5.257-4.639-9.15-9.654-10.514c-15.771-4.035-27.379-18.335-27.379-35.442
			c0-11.658,5.399-22.008,13.831-28.728c-6.607-21.305-13.831-52.605-13.831-87.407c0-16.865,13.689-30.561,30.561-30.561
			c0,0,6.877-73.377,103.895-61.115c99.668,12.609,149.552-12.119,149.552-12.119s21.589,20.893,21.589,61.016
			c0,16.133-4.468,31.215-12.212,44.08c-0.014-0.028-0.014-0.05-0.014-0.078l-0.021,0.142c0.014-0.028,0.021-0.043,0.036-0.064
			c4.035,36.969-2.984,69.086-9.789,89.865c6.081,6.55,9.775,15.316,9.775,24.97c0,17.106-11.615,31.407-27.379,35.442
			c-5.008,1.364-9.292,5.257-9.661,10.514c-3.318,39.157-27.166,72.538-60.746,89.254l12.226,39.576
			C760.772,687.169,826.441,752.838,826.441,833.859z"/>
	</g>
	<g>
		<path style="fill:#D1374A;" d="M2025.361,588.758c0,225.515-168.122,411.759-385.872,440.224
			c-19.017,2.486-38.425,3.772-58.125,3.772c-245.214,0-443.997-198.783-443.997-443.997s198.783-443.997,443.997-443.997
			c211.861,0,389.062,148.387,433.348,346.9C2021.681,522.912,2025.361,555.405,2025.361,588.758z"/>
		<path style="fill:#AF253C;" d="M1718.69,292.453l296.021,199.209c6.969,31.25,10.649,63.744,10.649,97.097
			c0,225.515-168.122,411.759-385.872,440.224c-131.544-87.869-253.341-170.743-265.929-184.447l51.566-41.32
			C1583.842,676.033,1688.688,493.615,1718.69,292.453L1718.69,292.453z"/>
		<path style="fill:#FFFFFF;" d="M1789.169,833.859v10.677c-56.697,46.119-129.022,73.76-207.805,73.76
			c-78.783,0-151.108-27.641-207.805-73.76v-10.677c0-81.021,65.676-146.689,146.689-146.689l12.219-39.562
			c-33.573-16.716-57.435-50.097-60.753-89.268c-0.362-5.257-4.639-9.15-9.654-10.514c-15.771-4.035-27.379-18.335-27.379-35.442
			c0-11.658,5.399-22.008,13.831-28.728c-6.607-21.305-13.831-52.605-13.831-87.407c0-16.865,13.689-30.561,30.561-30.561
			c0,0,6.877-73.377,103.895-61.115c99.668,12.609,149.552-12.119,149.552-12.119s21.589,20.893,21.589,61.016
			c0,16.133-4.469,31.215-12.212,44.08c-0.014-0.028-0.014-0.05-0.014-0.078l-0.021,0.142c0.014-0.028,0.021-0.043,0.036-0.064
			c4.035,36.969-2.984,69.086-9.789,89.865c6.081,6.55,9.775,15.316,9.775,24.97c0,17.106-11.615,31.407-27.379,35.442
			c-5.008,1.364-9.292,5.257-9.661,10.514c-3.318,39.157-27.166,72.538-60.746,89.254l12.226,39.576
			C1723.5,687.169,1789.169,752.838,1789.169,833.859z"/>
	</g>
	<g>
		<path style="fill:#F47B2A;" d="M1062.633,1611.242c0,225.515-168.122,411.759-385.872,440.224
			c-19.017,2.486-38.425,3.772-58.125,3.772c-245.214,0-443.997-198.782-443.997-443.996s198.783-443.997,443.997-443.997
			c211.861,0,389.062,148.387,433.348,346.9C1058.953,1545.395,1062.633,1577.889,1062.633,1611.242z"/>
		<path style="fill:#D16218;" d="M755.962,1314.936l296.021,199.209c6.969,31.25,10.649,63.744,10.649,97.097
			c0,225.515-168.122,411.759-385.872,440.224c-131.544-87.869-253.341-170.744-265.929-184.447l51.565-41.32
			C621.113,1698.516,725.96,1516.099,755.962,1314.936L755.962,1314.936z"/>
		<path style="fill:#FFFFFF;" d="M826.441,1856.342v10.677c-56.697,46.119-129.022,73.76-207.805,73.76
			s-151.108-27.641-207.805-73.76v-10.677c0-81.021,65.676-146.689,146.689-146.689l12.219-39.562
			c-33.573-16.716-57.435-50.097-60.753-89.268c-0.362-5.257-4.639-9.15-9.654-10.514c-15.771-4.035-27.379-18.335-27.379-35.442
			c0-11.658,5.399-22.008,13.831-28.728c-6.607-21.305-13.831-52.605-13.831-87.407c0-16.865,13.689-30.561,30.561-30.561
			c0,0,6.877-73.377,103.895-61.115c99.668,12.609,149.552-12.119,149.552-12.119s21.589,20.893,21.589,61.016
			c0,16.133-4.468,31.215-12.212,44.08c-0.014-0.028-0.014-0.05-0.014-0.078l-0.021,0.142c0.014-0.028,0.021-0.043,0.036-0.064
			c4.035,36.969-2.984,69.086-9.789,89.865c6.081,6.55,9.775,15.316,9.775,24.97c0,17.106-11.615,31.407-27.379,35.442
			c-5.008,1.364-9.292,5.257-9.661,10.514c-3.318,39.157-27.166,72.538-60.746,89.254l12.226,39.576
			C760.772,1709.653,826.441,1775.322,826.441,1856.342z"/>
	</g>
	<g>
		<path style="fill:#2961EF;" d="M2025.361,1611.242c0,225.515-168.122,411.759-385.872,440.224
			c-19.017,2.486-38.425,3.772-58.125,3.772c-245.214,0-443.997-198.782-443.997-443.996s198.783-443.997,443.997-443.997
			c211.861,0,389.062,148.387,433.348,346.9C2021.681,1545.395,2025.361,1577.889,2025.361,1611.242z"/>
		<path style="fill:#1E56C6;" d="M1718.69,1314.936l296.021,199.209c6.969,31.25,10.649,63.744,10.649,97.097
			c0,225.515-168.122,411.759-385.872,440.224c-131.544-87.869-253.341-170.744-265.929-184.447l51.566-41.32
			C1583.842,1698.516,1688.688,1516.099,1718.69,1314.936L1718.69,1314.936z"/>
		<path style="fill:#FFFFFF;" d="M1789.169,1856.342v10.677c-56.697,46.119-129.022,73.76-207.805,73.76
			c-78.783,0-151.108-27.641-207.805-73.76v-10.677c0-81.021,65.676-146.689,146.689-146.689l12.219-39.562
			c-33.573-16.716-57.435-50.097-60.753-89.268c-0.362-5.257-4.639-9.15-9.654-10.514c-15.771-4.035-27.379-18.335-27.379-35.442
			c0-11.658,5.399-22.008,13.831-28.728c-6.607-21.305-13.831-52.605-13.831-87.407c0-16.865,13.689-30.561,30.561-30.561
			c0,0,6.877-73.377,103.895-61.115c99.668,12.609,149.552-12.119,149.552-12.119s21.589,20.893,21.589,61.016
			c0,16.133-4.469,31.215-12.212,44.08c-0.014-0.028-0.014-0.05-0.014-0.078l-0.021,0.142c0.014-0.028,0.021-0.043,0.036-0.064
			c4.035,36.969-2.984,69.086-9.789,89.865c6.081,6.55,9.775,15.316,9.775,24.97c0,17.106-11.615,31.407-27.379,35.442
			c-5.008,1.364-9.292,5.257-9.661,10.514c-3.318,39.157-27.166,72.538-60.746,89.254l12.226,39.576
			C1723.5,1709.653,1789.169,1775.322,1789.169,1856.342z"/>
	</g>
</g>
</svg>
